<svg width="810" height="270" viewBox="0 0 810 270" fill="none" xmlns="http://www.w3.org/2000/svg">
<path d="M210.118 19.4584L201.374 53H191.484L186.132 30.9256L180.59 53H170.699L162.194 19.4584H170.938L175.764 43.874L181.737 19.4584H190.719L196.453 43.874L201.326 19.4584H210.118ZM239.348 39.2394C239.348 40.0038 239.3 40.8002 239.204 41.6284H220.713C220.841 43.2847 221.366 44.5589 222.29 45.4508C223.246 46.3108 224.408 46.7408 225.778 46.7408C227.817 46.7408 229.234 45.8808 230.031 44.1607H238.726C238.281 45.9126 237.468 47.4894 236.29 48.8909C235.143 50.2925 233.694 51.3914 231.942 52.1877C230.19 52.9841 228.231 53.3822 226.065 53.3822C223.453 53.3822 221.128 52.8248 219.089 51.7099C217.05 50.5951 215.458 49.0024 214.311 46.9319C213.164 44.8615 212.591 42.4406 212.591 39.6694C212.591 36.8981 213.148 34.4773 214.263 32.4068C215.41 30.3364 217.003 28.7437 219.041 27.6288C221.08 26.514 223.421 25.9565 226.065 25.9565C228.645 25.9565 230.938 26.498 232.945 27.581C234.952 28.6641 236.513 30.2089 237.628 32.2157C238.774 34.2225 239.348 36.5637 239.348 39.2394ZM230.986 37.0893C230.986 35.6877 230.508 34.5728 229.553 33.7447C228.597 32.9165 227.403 32.5024 225.969 32.5024C224.6 32.5024 223.437 32.9005 222.481 33.6969C221.558 34.4932 220.984 35.624 220.761 37.0893H230.986ZM252.159 39.6216C252.159 36.8822 252.668 34.4773 253.688 32.4068C254.739 30.3364 256.156 28.7437 257.94 27.6288C259.724 26.514 261.715 25.9565 263.913 25.9565C265.792 25.9565 267.432 26.3388 268.834 27.1032C270.267 27.8677 271.366 28.8711 272.131 30.1134V26.3388H280.301V53H272.131V49.2254C271.334 50.4677 270.219 51.471 268.786 52.2355C267.385 53 265.744 53.3822 263.865 53.3822C261.699 53.3822 259.724 52.8248 257.94 51.7099C256.156 50.5632 254.739 48.9546 253.688 46.8842C252.668 44.7818 252.159 42.361 252.159 39.6216ZM272.131 39.6694C272.131 37.6308 271.557 36.0222 270.411 34.8436C269.296 33.665 267.926 33.0757 266.302 33.0757C264.677 33.0757 263.291 33.665 262.145 34.8436C261.03 35.9903 260.472 37.583 260.472 39.6216C260.472 41.6602 261.03 43.2847 262.145 44.4952C263.291 45.6737 264.677 46.263 266.302 46.263C267.926 46.263 269.296 45.6737 270.411 44.4952C271.557 43.3166 272.131 41.708 272.131 39.6694ZM294.382 30.7823C295.338 29.317 296.532 28.1703 297.966 27.3421C299.399 26.4821 300.992 26.0521 302.744 26.0521V34.7003H300.498C298.46 34.7003 296.931 35.1462 295.911 36.0381C294.892 36.8981 294.382 38.4271 294.382 40.625V53H286.212V26.3388H294.382V30.7823ZM331.781 39.2394C331.781 40.0038 331.734 40.8002 331.638 41.6284H313.147C313.275 43.2847 313.8 44.5589 314.724 45.4508C315.68 46.3108 316.842 46.7408 318.212 46.7408C320.25 46.7408 321.668 45.8808 322.464 44.1607H331.16C330.714 45.9126 329.902 47.4894 328.723 48.8909C327.577 50.2925 326.127 51.3914 324.375 52.1877C322.624 52.9841 320.665 53.3822 318.499 53.3822C315.887 53.3822 313.561 52.8248 311.523 51.7099C309.484 50.5951 307.891 49.0024 306.745 46.9319C305.598 44.8615 305.025 42.4406 305.025 39.6694C305.025 36.8981 305.582 34.4773 306.697 32.4068C307.844 30.3364 309.436 28.7437 311.475 27.6288C313.514 26.514 315.855 25.9565 318.499 25.9565C321.079 25.9565 323.372 26.498 325.379 27.581C327.386 28.6641 328.946 30.2089 330.061 32.2157C331.208 34.2225 331.781 36.5637 331.781 39.2394ZM323.42 37.0893C323.42 35.6877 322.942 34.5728 321.986 33.7447C321.031 32.9165 319.836 32.5024 318.403 32.5024C317.033 32.5024 315.871 32.9005 314.915 33.6969C313.991 34.4932 313.418 35.624 313.195 37.0893H323.42ZM361.077 46.0719V53H356.92C353.957 53 351.648 52.2833 349.992 50.8499C348.335 49.3846 347.507 47.0116 347.507 43.7307V33.1235H344.258V26.3388H347.507V19.8407H355.677V26.3388H361.029V33.1235H355.677V43.8262C355.677 44.6226 355.868 45.1959 356.251 45.5463C356.633 45.8967 357.27 46.0719 358.162 46.0719H361.077ZM373.798 30.7823C374.754 29.317 375.948 28.1703 377.381 27.3421C378.815 26.4821 380.407 26.0521 382.159 26.0521V34.7003H379.914C377.875 34.7003 376.346 35.1462 375.327 36.0381C374.308 36.8981 373.798 38.4271 373.798 40.625V53H365.628V26.3388H373.798V30.7823ZM412.391 26.3388V53H404.221V49.3687C403.393 50.5473 402.262 51.5029 400.829 52.2355C399.427 52.9363 397.866 53.2867 396.146 53.2867C394.108 53.2867 392.308 52.8407 390.747 51.9488C389.186 51.0251 387.976 49.7032 387.116 47.9831C386.256 46.263 385.826 44.2403 385.826 41.915V26.3388H393.948V40.8161C393.948 42.5999 394.41 43.9855 395.334 44.973C396.258 45.9604 397.5 46.4541 399.061 46.4541C400.654 46.4541 401.912 45.9604 402.835 44.973C403.759 43.9855 404.221 42.5999 404.221 40.8161V26.3388H412.391ZM429.106 53.3822C426.781 53.3822 424.711 52.9841 422.895 52.1877C421.079 51.3914 419.646 50.3084 418.595 48.9387C417.544 47.5372 416.954 45.9763 416.827 44.2563H424.902C424.997 45.18 425.427 45.9286 426.192 46.5019C426.956 47.0753 427.896 47.362 429.011 47.362C430.03 47.362 430.81 47.1708 431.352 46.7886C431.925 46.3745 432.212 45.8489 432.212 45.2119C432.212 44.4474 431.814 43.8899 431.017 43.5396C430.221 43.1573 428.931 42.7432 427.147 42.2973C425.236 41.8513 423.643 41.3895 422.369 40.9117C421.095 40.402 419.996 39.6216 419.072 38.5704C418.149 37.4874 417.687 36.0381 417.687 34.2225C417.687 32.6935 418.101 31.3079 418.929 30.0656C419.789 28.7915 421.031 27.7881 422.656 27.0555C424.312 26.3228 426.271 25.9565 428.533 25.9565C431.878 25.9565 434.505 26.7847 436.417 28.4411C438.36 30.0975 439.475 32.2953 439.761 35.0347H432.212C432.085 34.111 431.67 33.3783 430.97 32.8368C430.301 32.2953 429.409 32.0246 428.294 32.0246C427.338 32.0246 426.606 32.2157 426.096 32.5979C425.586 32.9483 425.332 33.4421 425.332 34.0791C425.332 34.8436 425.73 35.417 426.526 35.7992C427.354 36.1814 428.628 36.5637 430.349 36.9459C432.323 37.4556 433.932 37.9652 435.174 38.4749C436.417 38.9527 437.5 39.749 438.423 40.8639C439.379 41.9469 439.873 43.4121 439.905 45.2596C439.905 46.8205 439.459 48.222 438.567 49.4643C437.707 50.6747 436.448 51.6303 434.792 52.3311C433.168 53.0319 431.272 53.3822 429.106 53.3822ZM459.763 46.0719V53H455.606C452.644 53 450.334 52.2833 448.678 50.8499C447.021 49.3846 446.193 47.0116 446.193 43.7307V33.1235H442.944V26.3388H446.193V19.8407H454.364V26.3388H459.715V33.1235H454.364V43.8262C454.364 44.6226 454.555 45.1959 454.937 45.5463C455.319 45.8967 455.956 46.0719 456.848 46.0719H459.763ZM489.446 39.2394C489.446 40.0038 489.398 40.8002 489.303 41.6284H470.812C470.939 43.2847 471.465 44.5589 472.389 45.4508C473.344 46.3108 474.507 46.7408 475.877 46.7408C477.915 46.7408 479.333 45.8808 480.129 44.1607H488.825C488.379 45.9126 487.567 47.4894 486.388 48.8909C485.241 50.2925 483.792 51.3914 482.04 52.1877C480.288 52.9841 478.329 53.3822 476.163 53.3822C473.551 53.3822 471.226 52.8248 469.187 51.7099C467.149 50.5951 465.556 49.0024 464.409 46.9319C463.263 44.8615 462.689 42.4406 462.689 39.6694C462.689 36.8981 463.247 34.4773 464.362 32.4068C465.508 30.3364 467.101 28.7437 469.14 27.6288C471.178 26.514 473.519 25.9565 476.163 25.9565C478.743 25.9565 481.037 26.498 483.044 27.581C485.05 28.6641 486.611 30.2089 487.726 32.2157C488.873 34.2225 489.446 36.5637 489.446 39.2394ZM481.085 37.0893C481.085 35.6877 480.607 34.5728 479.651 33.7447C478.696 32.9165 477.501 32.5024 476.068 32.5024C474.698 32.5024 473.535 32.9005 472.58 33.6969C471.656 34.4932 471.083 35.624 470.86 37.0893H481.085ZM492.132 39.6216C492.132 36.8822 492.641 34.4773 493.661 32.4068C494.712 30.3364 496.129 28.7437 497.913 27.6288C499.697 26.514 501.688 25.9565 503.886 25.9565C505.638 25.9565 507.23 26.3228 508.664 27.0555C510.129 27.7881 511.276 28.7755 512.104 30.0178V17.6428H520.274V53H512.104V49.1776C511.339 50.4517 510.24 51.471 508.807 52.2355C507.405 53 505.765 53.3822 503.886 53.3822C501.688 53.3822 499.697 52.8248 497.913 51.7099C496.129 50.5632 494.712 48.9546 493.661 46.8842C492.641 44.7818 492.132 42.361 492.132 39.6216ZM512.104 39.6694C512.104 37.6308 511.53 36.0222 510.384 34.8436C509.269 33.665 507.899 33.0757 506.275 33.0757C504.65 33.0757 503.265 33.665 502.118 34.8436C501.003 35.9903 500.446 37.583 500.446 39.6216C500.446 41.6602 501.003 43.2847 502.118 44.4952C503.265 45.6737 504.65 46.263 506.275 46.263C507.899 46.263 509.269 45.6737 510.384 44.4952C511.53 43.3166 512.104 41.708 512.104 39.6694ZM544.481 30.1134C545.245 28.8711 546.344 27.8677 547.778 27.1032C549.211 26.3388 550.851 25.9565 552.699 25.9565C554.897 25.9565 556.888 26.514 558.671 27.6288C560.455 28.7437 561.857 30.3364 562.876 32.4068C563.927 34.4773 564.453 36.8822 564.453 39.6216C564.453 42.361 563.927 44.7818 562.876 46.8842C561.857 48.9546 560.455 50.5632 558.671 51.7099C556.888 52.8248 554.897 53.3822 552.699 53.3822C550.82 53.3822 549.179 53.0159 547.778 52.2833C546.376 51.5188 545.277 50.5154 544.481 49.2732V53H536.31V17.6428H544.481V30.1134ZM556.139 39.6216C556.139 37.583 555.566 35.9903 554.419 34.8436C553.304 33.665 551.919 33.0757 550.262 33.0757C548.638 33.0757 547.252 33.665 546.105 34.8436C544.99 36.0222 544.433 37.6308 544.433 39.6694C544.433 41.708 544.99 43.3166 546.105 44.4952C547.252 45.6737 548.638 46.263 550.262 46.263C551.887 46.263 553.272 45.6737 554.419 44.4952C555.566 43.2847 556.139 41.6602 556.139 39.6216ZM595.974 26.3388L579.251 65.6617H570.459L576.575 52.0922L565.729 26.3388H574.855L581.019 43.014L587.135 26.3388H595.974Z" fill="#2C444E"/>
<g clip-path="url(#clip0_69_25)">
<path d="M23.6315 121.464C10.6252 121.464 0.0810547 132.041 0.0810547 145.089C0.0810547 158.137 10.6252 168.714 23.6315 168.714C36.6392 168.714 47.1822 158.137 47.1822 145.089C47.1822 132.042 36.6392 121.465 23.6312 121.465L23.6315 121.464V121.464ZM34.4316 155.538C34.0097 156.232 33.1042 156.452 32.4124 156.026C26.883 152.638 19.9222 151.871 11.7245 153.75C10.9346 153.93 10.1471 153.434 9.96716 152.641C9.78633 151.848 10.2793 151.058 11.0712 150.878C20.0422 148.822 27.7373 149.707 33.945 153.513C34.6369 153.939 34.8562 154.844 34.4316 155.538V155.538ZM37.3141 149.105C36.7826 149.972 35.6521 150.246 34.7887 149.712C28.4584 145.809 18.8088 144.679 11.3212 146.959C10.3502 147.253 9.32456 146.704 9.02984 145.732C8.73737 144.757 9.28491 143.73 10.2543 143.434C18.8071 140.831 29.4399 142.092 36.7095 146.573C37.5728 147.107 37.8456 148.241 37.3141 149.106V149.105ZM37.5616 142.407C29.9714 137.884 17.4485 137.468 10.2017 139.675C9.038 140.029 7.80737 139.37 7.45471 138.202C7.10206 137.034 7.75843 135.801 8.92298 135.446C17.2418 132.912 31.0709 133.402 39.8097 138.606C40.8586 139.229 41.2017 140.585 40.5802 141.634C39.9615 142.684 38.606 143.03 37.5627 142.407H37.5616ZM64.154 143.273C60.0875 142.301 59.3648 141.618 59.3648 140.183C59.3648 138.828 60.6359 137.916 62.5285 137.916C64.3621 137.916 66.1788 138.609 68.0855 140.034C68.1417 140.078 68.2148 140.095 68.2851 140.084C68.3583 140.073 68.4201 140.034 68.4623 139.975L70.4477 137.167C70.5293 137.051 70.5068 136.892 70.3971 136.804C68.1277 134.977 65.5742 134.09 62.5876 134.09C58.1977 134.09 55.1295 136.733 55.1295 140.515C55.1295 144.57 57.7759 146.006 62.3485 147.114C66.2378 148.014 66.8959 148.767 66.8959 150.113C66.8959 151.605 65.5685 152.534 63.4312 152.534C61.0577 152.534 59.1201 151.73 56.9547 149.851C56.9013 149.803 56.8281 149.783 56.7606 149.786C56.6875 149.791 56.6228 149.825 56.5778 149.879L54.3506 152.536C54.2578 152.649 54.269 152.813 54.3759 152.909C56.8956 155.166 59.9947 156.356 63.3412 156.356C68.0714 156.356 71.1283 153.764 71.1283 149.749C71.1367 146.362 69.1147 144.486 64.1624 143.277L64.154 143.273V143.273ZM81.8316 139.25C79.7815 139.25 78.0998 140.061 76.7106 141.721V139.852C76.7106 139.705 76.5925 139.584 76.4462 139.584H72.8044C72.6582 139.584 72.54 139.705 72.54 139.852V160.616C72.54 160.763 72.6582 160.884 72.8044 160.884H76.4462C76.5925 160.884 76.7106 160.763 76.7106 160.616V154.063C78.0998 155.623 79.7815 156.387 81.8316 156.387C85.6422 156.387 89.5006 153.445 89.5006 147.82C89.5062 142.193 85.6478 139.25 81.8345 139.25L81.8316 139.25ZM85.2654 147.82C85.2654 150.683 83.5077 152.683 80.988 152.683C78.4992 152.683 76.6206 150.593 76.6206 147.82C76.6206 145.047 78.4992 142.957 80.988 142.957C83.4656 142.956 85.2654 145.001 85.2654 147.819V147.82ZM99.3856 139.25C94.4782 139.25 90.6339 143.041 90.6339 147.881C90.6339 152.669 94.4529 156.418 99.3265 156.418C104.251 156.418 108.106 152.641 108.106 147.82C108.106 143.015 104.276 139.251 99.3856 139.251V139.25V139.25ZM99.3856 152.711C96.7758 152.711 94.8073 150.607 94.8073 147.818C94.8073 145.017 96.7083 142.985 99.3265 142.985C101.953 142.985 103.933 145.088 103.933 147.88C103.933 150.68 102.021 152.711 99.3856 152.711V152.711ZM118.585 139.584H114.577V135.475C114.577 135.328 114.459 135.208 114.313 135.208H110.671C110.525 135.208 110.404 135.328 110.404 135.475V139.584H108.655C108.508 139.584 108.39 139.705 108.39 139.852V142.991C108.39 143.139 108.508 143.259 108.655 143.259H110.404V151.383C110.404 154.664 112.032 156.328 115.247 156.328C116.551 156.328 117.634 156.057 118.655 155.476C118.739 155.431 118.79 155.341 118.79 155.245V152.254C118.79 152.164 118.742 152.077 118.663 152.029C118.585 151.978 118.486 151.975 118.405 152.017C117.704 152.37 117.027 152.534 116.267 152.534C115.1 152.534 114.577 152 114.577 150.81V143.26H118.585C118.731 143.26 118.849 143.14 118.849 142.993V139.854C118.855 139.706 118.736 139.586 118.587 139.586L118.585 139.584V139.584ZM132.545 139.601V139.096C132.545 137.611 133.113 136.949 134.384 136.949C135.143 136.949 135.753 137.1 136.437 137.329C136.521 137.355 136.608 137.342 136.676 137.291C136.746 137.241 136.785 137.16 136.785 137.074V133.996C136.785 133.879 136.712 133.774 136.597 133.74C135.877 133.525 134.955 133.304 133.571 133.304C130.21 133.304 128.43 135.203 128.43 138.796V139.569H126.681C126.535 139.569 126.414 139.689 126.414 139.836V142.991C126.414 143.139 126.535 143.259 126.681 143.259H128.43V155.786C128.43 155.936 128.551 156.054 128.697 156.054H132.336C132.485 156.054 132.604 155.936 132.604 155.786V143.26H136.004L141.212 155.786C140.621 157.101 140.039 157.364 139.246 157.364C138.605 157.364 137.927 157.172 137.238 156.791C137.173 156.757 137.095 156.751 137.027 156.771C136.957 156.796 136.898 156.847 136.87 156.915L135.635 159.632C135.576 159.762 135.627 159.911 135.75 159.979C137.038 160.678 138.2 160.977 139.637 160.977C142.325 160.977 143.813 159.719 145.121 156.339L151.437 139.966C151.471 139.884 151.46 139.791 151.409 139.718C151.361 139.645 151.28 139.601 151.192 139.601H147.402C147.286 139.601 147.185 139.674 147.148 139.781L143.265 150.906L139.013 139.773C138.973 139.67 138.875 139.601 138.765 139.601H132.545V139.601V139.601ZM124.451 139.584H120.809C120.663 139.584 120.542 139.705 120.542 139.852V155.786C120.542 155.936 120.663 156.054 120.809 156.054H124.451C124.597 156.054 124.718 155.936 124.718 155.786V139.853C124.718 139.706 124.6 139.586 124.451 139.586V139.584ZM122.651 132.329C121.208 132.329 120.039 133.5 120.039 134.947C120.039 136.395 121.208 137.568 122.651 137.568C124.094 137.568 125.261 136.395 125.261 134.947C125.261 133.5 124.091 132.329 122.651 132.329ZM154.547 144.708C153.108 144.708 151.985 143.547 151.985 142.137C151.985 140.728 153.122 139.553 154.561 139.553C156.001 139.553 157.123 140.714 157.123 142.123C157.123 143.532 155.987 144.708 154.547 144.708ZM154.561 139.809C153.248 139.809 152.255 140.856 152.255 142.137C152.255 143.418 153.243 144.451 154.547 144.451C155.861 144.451 156.853 143.405 156.853 142.123C156.853 140.842 155.866 139.809 154.561 139.809V139.809ZM155.13 142.387L155.855 143.405H155.242L154.59 142.471H154.03V143.405H153.518V140.707H154.716C155.343 140.707 155.754 141.027 155.754 141.567C155.757 142.01 155.501 142.28 155.132 142.387H155.13ZM154.696 141.17H154.03V142.023H154.696C155.028 142.023 155.228 141.86 155.228 141.596C155.228 141.318 155.028 141.17 154.696 141.17V141.17Z" fill="#98A6AA"/>
</g>
<path fill-rule="evenodd" clip-rule="evenodd" d="M336.263 153.57C339.948 153.57 342.946 150.611 342.946 146.974C342.946 143.337 339.948 140.379 336.263 140.379C332.578 140.379 329.579 143.337 329.579 146.974C329.579 150.611 332.578 153.57 336.263 153.57ZM342.946 130.583H343.127H346.112V156.717H342.946V154.107C341.119 155.779 338.762 156.694 336.263 156.694C330.832 156.694 326.413 152.334 326.413 146.974C326.413 141.614 330.832 137.254 336.263 137.254C338.762 137.254 341.119 138.17 342.946 139.841V130.583ZM270.6 153.455C274.285 153.455 277.283 150.496 277.283 146.859C277.283 143.222 274.285 140.264 270.6 140.264C266.914 140.264 263.916 143.222 263.916 146.859C263.916 150.496 266.914 153.455 270.6 153.455ZM263.916 139.726C265.744 138.055 268.1 137.139 270.6 137.139C276.03 137.139 280.449 141.5 280.449 146.859C280.449 152.219 276.03 156.579 270.6 156.579C268.1 156.579 265.744 155.664 263.916 153.992V163.25H260.75V137.117H263.916V139.726ZM286.49 145.342C287.203 142.388 289.858 140.267 292.887 140.267C295.876 140.267 298.38 142.343 299.047 145.342H286.49ZM292.887 137.117C287.537 137.117 283.185 141.513 283.185 146.917C283.185 152.32 287.537 156.717 292.887 156.717C295.882 156.717 298.632 155.584 300.431 153.608L301.366 152.582L301.486 152.449L301.355 152.327L299.323 150.438L299.192 150.316L299.071 150.449L298.136 151.476C296.944 152.785 294.981 153.566 292.887 153.566C289.858 153.566 287.203 151.446 286.49 148.492H302.337V146.917C302.337 141.421 298.186 137.117 292.887 137.117ZM364.833 146.917C364.833 150.583 361.836 153.566 358.15 153.566C354.465 153.566 351.467 150.583 351.467 146.917C351.467 143.25 354.465 140.267 358.15 140.267C361.836 140.267 364.833 143.25 364.833 146.917ZM358.15 137.117C352.72 137.117 348.301 141.513 348.301 146.917C348.301 152.32 352.72 156.717 358.15 156.717C363.582 156.717 368 152.32 368 146.917C368 141.513 363.582 137.117 358.15 137.117ZM314.101 137.117C311.901 137.117 309.805 137.96 308.155 139.501V137.117H305.073V156.717H308.155V146.714C308.155 143.146 310.823 140.243 314.101 140.243C317.38 140.243 320.048 143.146 320.048 146.714V156.717H323.13V146.714C323.13 141.422 319.079 137.117 314.101 137.117Z" fill="#98A6AA"/>
<path fill-rule="evenodd" clip-rule="evenodd" d="M225 149.25H239.896V163.917L254.792 149.25V134.583H239.896L225 149.25Z" fill="#98A6AA"/>
<g clip-path="url(#clip1_69_25)">
<path d="M448.175 132.333C454.885 132.333 460.351 137.803 460.351 144.572C460.351 151.341 454.885 156.811 448.175 156.811C441.465 156.811 436 151.395 436 144.572C436 137.749 441.465 132.333 448.175 132.333ZM543.629 132.062V153.507C543.629 155.132 544.279 155.565 545.523 155.89L545.578 156.161H538.705V153.507C537.894 155.457 536.216 156.648 534.052 156.648C530.372 156.648 527.937 153.291 527.937 148.309C527.937 145.493 528.749 143.11 530.264 141.323C531.725 139.59 533.727 138.669 535.946 138.669C537.028 138.669 537.948 138.886 538.705 139.373V136.449C538.705 135.799 538.543 135.366 538.218 135.041C537.785 134.662 537.082 134.499 536 134.608H535.946V134.337L543.629 132.062ZM569.712 138.723V153.507C569.712 155.132 570.361 155.565 571.606 155.89V156.161H564.733V153.453C563.922 155.403 562.136 156.648 560.134 156.648C557.753 156.648 556.238 155.565 555.642 153.453L555.534 152.912C555.426 152.37 555.372 151.829 555.372 151.287V143.381C555.372 141.648 554.993 141.106 553.478 140.998H553.424V140.727L560.296 138.723V151.179C560.296 153.02 561.108 154.049 562.623 154.049C563.543 154.049 564.3 153.562 564.733 152.749V143.381C564.733 141.594 564.409 141.052 563.164 140.944H563.11V140.673L569.712 138.723ZM520.091 138.669C521.93 138.669 523.716 139.319 524.907 140.456C526.259 141.756 526.963 143.651 527.017 146.143V146.197H516.682C516.465 149.771 518.684 152.695 521.606 152.803C523.716 152.966 525.556 151.666 526.584 149.554L526.855 149.663C526.259 153.616 523.933 156.594 519.874 156.594C515.275 156.594 512.677 152.749 512.569 147.93V146.684C512.785 144.572 513.435 142.677 514.571 141.269C515.275 140.402 516.086 139.752 517.06 139.319C517.872 138.886 519.062 138.669 520.036 138.669H520.091ZM591.681 138.723C594.603 138.723 596.389 140.565 596.389 143.706V153.778C596.389 154.97 596.93 155.565 598.283 155.89H598.337V156.161H591.411V143.868C591.411 141.919 590.707 140.944 589.246 140.944C588.056 140.944 587.46 141.81 587.136 142.568C587.19 142.947 587.244 143.327 587.244 143.706V153.941C587.244 155.186 587.623 155.619 588.705 155.89H588.759V156.161H582.32V143.868C582.32 141.919 581.562 140.944 580.155 140.944C579.019 140.944 578.424 141.756 578.153 142.406V153.995C578.153 155.24 578.532 155.674 579.614 155.944H579.668V156.215H573.229V143.326C573.229 141.594 572.796 141.052 571.335 140.944H571.281V140.673L578.153 138.778V141.648C578.857 139.807 580.48 138.723 582.536 138.723C584.863 138.723 586.486 139.861 587.028 141.918C587.731 139.969 589.517 138.723 591.681 138.723ZM492.98 133.146L499.42 148.255L505.859 133.146H512.785L512.731 133.416L512.653 133.434C511.459 133.706 510.837 134.153 510.837 135.637V154.049C510.946 155.24 511.595 155.619 512.731 155.89H512.785V156.161H503.965V155.89H504.019C505.156 155.619 505.805 155.24 505.913 154.049V136.124L497.418 156.107H496.931L488.651 136.666V153.616C488.651 155.132 489.301 155.565 490.545 155.836H490.599V156.107H485.513V155.836H485.567C486.812 155.565 487.461 155.132 487.461 153.616V135.637C487.461 134.12 486.812 133.687 485.567 133.416H485.513V133.146H492.98ZM552.017 138.723V153.507L552.018 153.607C552.044 155.15 552.692 155.572 553.911 155.89L553.965 156.161H547.093V143.381C547.093 141.648 546.714 141.106 545.199 140.998H545.145V140.727L552.017 138.723ZM467.656 133.037C470.957 133.037 473.716 138.236 473.716 144.572C473.716 150.962 471.011 156.107 467.656 156.107C464.301 156.107 461.595 150.962 461.595 144.572C461.595 138.182 464.301 133.037 467.656 133.037ZM476.963 134.229C478.208 134.229 479.128 138.886 479.128 144.572C479.128 150.258 478.154 154.915 476.963 154.915C475.784 154.915 474.818 150.351 474.799 144.742L474.799 144.572C474.799 138.886 475.773 134.229 476.963 134.229ZM536.757 139.644C534.593 139.644 533.24 142.514 533.24 146.955C533.24 149.067 533.619 150.908 534.268 152.154C534.863 153.345 535.729 153.995 536.703 153.995C537.677 153.995 538.381 153.562 538.705 152.749V140.835C538.326 140.077 537.623 139.644 536.757 139.644ZM520.036 139.698C518.088 139.698 516.952 142.027 516.79 145.276V145.33H522.688C522.796 142.785 522.363 141.106 521.552 140.294C521.119 139.915 520.632 139.698 520.036 139.698ZM549.365 132.225C550.935 132.225 552.125 133.416 552.125 134.987C552.125 136.557 550.935 137.749 549.365 137.749C547.796 137.749 546.606 136.557 546.606 134.987C546.606 133.416 547.796 132.225 549.365 132.225Z" fill="#98A6AA"/>
</g>
<g clip-path="url(#clip2_69_25)">
<path d="M742.463 133.806C742.463 135.428 741.165 136.734 739.555 136.734C737.945 136.734 736.647 135.428 736.647 133.806C736.647 132.185 737.9 130.878 739.555 130.878C741.21 130.923 742.463 132.23 742.463 133.806ZM730.474 139.707C730.474 139.977 730.474 140.428 730.474 140.428C730.474 140.428 729.088 138.626 726.135 138.626C721.26 138.626 717.457 142.365 717.457 147.545C717.457 152.68 721.215 156.464 726.135 156.464C729.132 156.464 730.474 154.617 730.474 154.617V155.383C730.474 155.743 730.743 156.014 731.101 156.014H734.724V139.077C734.724 139.077 731.414 139.077 731.101 139.077C730.743 139.077 730.474 139.392 730.474 139.707ZM730.474 150.563C729.803 151.554 728.461 152.41 726.851 152.41C723.988 152.41 721.796 150.608 721.796 147.545C721.796 144.482 723.988 142.68 726.851 142.68C728.417 142.68 729.848 143.581 730.474 144.527V150.563ZM737.408 139.077H741.702V156.014H737.408V139.077ZM801.554 138.626C798.602 138.626 797.215 140.428 797.215 140.428V130.923H792.921V156.014C792.921 156.014 796.231 156.014 796.544 156.014C796.902 156.014 797.17 155.698 797.17 155.383V154.617C797.17 154.617 798.557 156.464 801.509 156.464C806.385 156.464 810.187 152.68 810.187 147.545C810.187 142.41 806.385 138.626 801.554 138.626ZM800.838 152.365C799.183 152.365 797.886 151.509 797.215 150.518V144.482C797.886 143.581 799.317 142.635 800.838 142.635C803.701 142.635 805.893 144.437 805.893 147.5C805.893 150.563 803.701 152.365 800.838 152.365ZM790.684 145.968V156.059H786.39V146.464C786.39 143.671 785.495 142.545 783.079 142.545C781.782 142.545 780.44 143.221 779.59 144.212V156.014H775.296V139.077H778.696C779.054 139.077 779.322 139.392 779.322 139.707V140.428C780.574 139.122 782.23 138.626 783.885 138.626C785.763 138.626 787.329 139.167 788.582 140.248C790.102 141.509 790.684 143.131 790.684 145.968ZM764.873 138.626C761.921 138.626 760.534 140.428 760.534 140.428V130.923H756.24V156.014C756.24 156.014 759.55 156.014 759.863 156.014C760.221 156.014 760.49 155.698 760.49 155.383V154.617C760.49 154.617 761.876 156.464 764.829 156.464C769.705 156.464 773.507 152.68 773.507 147.545C773.551 142.41 769.749 138.626 764.873 138.626ZM764.158 152.365C762.503 152.365 761.205 151.509 760.534 150.518V144.482C761.205 143.581 762.637 142.635 764.158 142.635C767.021 142.635 769.212 144.437 769.212 147.5C769.212 150.563 767.021 152.365 764.158 152.365ZM752.527 138.626C753.825 138.626 754.496 138.851 754.496 138.851V142.86C754.496 142.86 750.917 141.644 748.68 144.212V156.059H744.386V139.077C744.386 139.077 747.696 139.077 748.009 139.077C748.367 139.077 748.636 139.392 748.636 139.707V140.428C749.441 139.482 751.185 138.626 752.527 138.626ZM707.929 154.482C707.706 153.941 707.482 153.356 707.258 152.86C706.9 152.05 706.543 151.284 706.229 150.563L706.185 150.518C703.098 143.761 699.788 136.914 696.299 130.158L696.165 129.887C695.807 129.212 695.449 128.491 695.091 127.77C694.644 126.959 694.197 126.104 693.481 125.293C692.049 123.491 689.992 122.5 687.8 122.5C685.563 122.5 683.55 123.491 682.074 125.203C681.403 126.014 680.911 126.869 680.464 127.68C680.106 128.401 679.748 129.122 679.39 129.797L679.256 130.068C675.812 136.824 672.457 143.671 669.37 150.428L669.325 150.518C669.012 151.239 668.654 152.005 668.297 152.815C668.073 153.311 667.849 153.851 667.626 154.437C667.044 156.104 666.865 157.68 667.089 159.302C667.581 162.68 669.817 165.518 672.904 166.779C674.067 167.275 675.275 167.5 676.527 167.5C676.885 167.5 677.332 167.455 677.69 167.41C679.166 167.23 680.687 166.734 682.164 165.878C683.998 164.842 685.742 163.356 687.71 161.194C689.679 163.356 691.468 164.842 693.257 165.878C694.733 166.734 696.254 167.23 697.73 167.41C698.088 167.455 698.536 167.5 698.893 167.5C700.146 167.5 701.398 167.275 702.517 166.779C705.648 165.518 707.84 162.635 708.332 159.302C708.69 157.725 708.511 156.149 707.929 154.482ZM687.755 156.824C685.34 153.761 683.774 150.878 683.237 148.446C683.013 147.41 682.969 146.509 683.103 145.698C683.192 144.977 683.461 144.347 683.819 143.806C684.669 142.59 686.1 141.824 687.755 141.824C689.41 141.824 690.886 142.545 691.692 143.806C692.049 144.347 692.318 144.977 692.407 145.698C692.541 146.509 692.497 147.455 692.273 148.446C691.736 150.833 690.171 153.716 687.755 156.824ZM705.603 158.941C705.29 161.284 703.724 163.311 701.533 164.212C700.459 164.662 699.296 164.797 698.133 164.662C697.015 164.527 695.896 164.167 694.733 163.491C693.123 162.59 691.513 161.194 689.634 159.122C692.586 155.473 694.375 152.14 695.046 149.167C695.36 147.77 695.404 146.509 695.27 145.338C695.091 144.212 694.689 143.176 694.062 142.275C692.676 140.248 690.35 139.077 687.755 139.077C685.161 139.077 682.835 140.293 681.448 142.275C680.822 143.176 680.419 144.212 680.24 145.338C680.061 146.509 680.106 147.815 680.464 149.167C681.135 152.14 682.969 155.518 685.876 159.167C684.042 161.239 682.387 162.635 680.777 163.536C679.614 164.212 678.496 164.572 677.377 164.707C676.169 164.842 675.006 164.662 673.978 164.257C671.786 163.356 670.22 161.329 669.907 158.986C669.773 157.86 669.862 156.734 670.31 155.473C670.444 155.023 670.667 154.572 670.891 154.032C671.204 153.311 671.562 152.545 671.92 151.779L671.965 151.689C675.051 144.977 678.361 138.131 681.806 131.464L681.94 131.194C682.298 130.518 682.656 129.797 683.013 129.122C683.371 128.401 683.774 127.725 684.266 127.14C685.205 126.059 686.458 125.473 687.845 125.473C689.231 125.473 690.484 126.059 691.423 127.14C691.915 127.725 692.318 128.401 692.676 129.122C693.033 129.797 693.391 130.518 693.749 131.194L693.883 131.464C697.283 138.176 700.593 145.023 703.68 151.734V151.779C704.038 152.5 704.351 153.311 704.709 154.032C704.932 154.572 705.156 155.023 705.29 155.473C705.648 156.644 705.782 157.77 705.603 158.941Z" fill="#98A6AA"/>
</g>
<path d="M54.2771 254.235V229.536H58.141V239.273C59.3578 237.473 61.1829 236.573 63.616 236.572C65.6914 236.572 67.2957 237.182 68.429 238.402C69.5623 239.623 70.1291 241.323 70.1292 243.502V254.235H66.2651V244.036C66.2651 241.216 65.0007 239.807 62.4718 239.806C61.2071 239.806 60.1695 240.185 59.3588 240.944C58.5482 241.702 58.1424 242.768 58.1417 244.142V254.235L54.2771 254.235Z" fill="#98A6AA"/>
<path d="M88.3906 252.104C86.673 253.809 84.5142 254.662 81.9139 254.662C79.3137 254.662 77.1488 253.809 75.419 252.104C73.6893 250.398 72.8246 248.229 72.8247 245.599C72.8248 242.968 73.6896 240.807 75.419 239.113C77.1485 237.42 79.3134 236.573 81.9139 236.572C84.5143 236.572 86.6733 237.419 88.3906 239.113C90.1085 240.808 90.9674 242.969 90.9672 245.599C90.9671 248.228 90.1082 250.396 88.3906 252.104ZM78.2461 249.935C79.1638 251.002 80.3865 251.535 81.9139 251.535C83.4414 251.535 84.664 251.002 85.5817 249.935C86.4997 248.869 86.9589 247.424 86.9593 245.599C86.9593 243.798 86.4942 242.365 85.5639 241.299C84.6336 240.232 83.4169 239.699 81.9139 239.699C80.3869 239.699 79.1642 240.227 78.2461 241.281C77.3278 242.335 76.8686 243.774 76.8683 245.598C76.8683 247.424 77.3275 248.869 78.2461 249.935Z" fill="#98A6AA"/>
<path d="M99.9115 254.662C96.3566 254.662 94.5792 252.766 94.5792 248.975V240.233H91.896V236.999H94.6872L95.5819 231.918H98.4799V236.999H105.386V240.233H98.4802V248.869C98.4802 250.457 99.0646 251.25 100.234 251.25C101.331 251.25 102.321 250.255 103.204 248.265L106.21 249.793C104.73 253.039 102.631 254.662 99.9115 254.662Z" fill="#98A6AA"/>
<path d="M107.452 262.125C105.734 262.125 104.315 261.651 103.194 260.703L104.625 257.683C105.317 258.488 106.068 258.891 106.879 258.891C107.953 258.891 108.489 258.204 108.489 256.83V236.999H112.354V256.9C112.354 258.748 111.894 260.081 110.976 260.898C110.057 261.716 108.883 262.125 107.452 262.125ZM110.422 234.084C109.787 234.106 109.169 233.876 108.704 233.445C108.481 233.236 108.305 232.982 108.188 232.7C108.07 232.418 108.015 232.115 108.025 231.81C108.016 231.503 108.072 231.197 108.189 230.913C108.306 230.628 108.482 230.371 108.704 230.157C109.171 229.734 109.781 229.5 110.413 229.5C111.045 229.5 111.655 229.734 112.122 230.157C112.349 230.368 112.529 230.624 112.649 230.909C112.769 231.194 112.828 231.501 112.819 231.81C112.825 232.113 112.766 232.414 112.645 232.693C112.525 232.972 112.347 233.222 112.122 233.427C111.896 233.642 111.629 233.811 111.338 233.924C111.046 234.037 110.735 234.091 110.422 234.084Z" fill="#98A6AA"/>
<path d="M121.951 254.662C119.971 254.662 118.366 254.17 117.138 253.187C115.91 252.204 115.296 250.883 115.295 249.225C115.295 247.709 115.934 246.424 117.21 245.369C118.486 244.314 120.09 243.786 122.023 243.787C124.003 243.787 125.673 244.415 127.032 245.671V243.574C127.032 242.342 126.716 241.389 126.084 240.713C125.452 240.037 124.551 239.7 123.383 239.7C121.021 239.7 119.554 240.896 118.981 243.289L115.438 242.543C115.915 240.695 116.857 239.238 118.265 238.172C119.674 237.106 121.427 236.572 123.526 236.572C125.816 236.572 127.623 237.171 128.947 238.367C130.271 239.564 130.933 241.311 130.933 243.609V254.235H127.175V252.067C125.911 253.797 124.169 254.662 121.951 254.662ZM122.666 251.819C124.384 251.819 125.839 250.966 127.032 249.26V248.726C125.839 247.305 124.384 246.594 122.666 246.594C121.664 246.594 120.853 246.837 120.232 247.323C119.938 247.538 119.7 247.82 119.539 248.144C119.377 248.469 119.295 248.827 119.301 249.189C119.292 249.555 119.37 249.918 119.528 250.248C119.687 250.579 119.922 250.867 120.214 251.09C120.823 251.576 121.64 251.819 122.666 251.819Z" fill="#98A6AA"/>
<path d="M134.693 254.235V236.999H138.45V239.984C139.404 237.804 141.05 236.715 143.389 236.714C144.772 236.714 145.917 237.165 146.824 238.065C147.731 238.965 148.184 240.174 148.183 241.69C148.174 242.597 148.017 243.497 147.718 244.355L144.175 244C144.248 243.529 144.296 243.054 144.318 242.578C144.318 240.802 143.579 239.913 142.1 239.913C141.098 239.913 140.257 240.44 139.577 241.494C138.898 242.549 138.557 243.941 138.557 245.67V254.235H134.693Z" fill="#98A6AA"/>
<path d="M30.1434 239.636C33.0232 238.047 36.9673 235.87 36.9673 229.535H32.1915C32.1915 233.08 30.454 234.038 27.824 235.49C24.9442 237.079 21 239.255 21 245.59H25.7759C25.7759 242.046 27.5133 241.087 30.1434 239.636Z" fill="#98A6AA"/>
<path d="M38.4094 238.18C38.4094 241.725 36.6719 242.683 34.0419 244.134C31.1629 245.723 27.2179 247.9 27.2179 254.235H31.9936C31.9936 250.69 33.7311 249.732 36.3611 248.281C39.2409 246.692 43.1849 244.516 43.1849 238.18H38.4094Z" fill="#98A6AA"/>
<path d="M481.698 239.252H469.605L480.077 233.254L478.001 229.684L467.526 235.682L473.572 225.294L469.974 223.233L463.927 233.619V221.626H459.771V233.62L453.724 223.233L450.125 225.294L456.17 235.68L445.699 229.684L443.62 233.254L454.093 239.252H442V243.375H454.092L443.62 249.373L445.697 252.943L456.171 246.945L450.125 257.333L453.723 259.394L459.771 249.007V261.001H463.927V248.75L470.085 259.328L473.459 257.396L467.3 246.815L477.998 252.942L480.076 249.372L469.605 243.374H481.697V239.252H481.698ZM461.849 246.917C461.107 246.918 460.372 246.773 459.687 246.491C459.001 246.209 458.378 245.796 457.854 245.276C457.329 244.756 456.913 244.138 456.629 243.458C456.345 242.777 456.199 242.049 456.198 241.312C456.198 240.576 456.344 239.847 456.628 239.167C456.912 238.487 457.328 237.869 457.853 237.348C458.377 236.828 459 236.415 459.686 236.133C460.371 235.851 461.106 235.706 461.848 235.706C463.346 235.706 464.783 236.296 465.843 237.347C466.902 238.399 467.498 239.824 467.498 241.311C467.498 242.798 466.903 244.224 465.844 245.275C464.784 246.326 463.347 246.917 461.849 246.917Z" fill="#98A6AA"/>
<path d="M492.412 255.715V226.911H497.74V255.715H492.412ZM543.516 236.14H548.604V238.529C549.686 236.619 552.211 235.584 554.374 235.584C557.059 235.584 559.222 236.739 560.223 238.845C561.784 236.457 563.869 235.584 566.474 235.584C570.119 235.584 573.604 237.772 573.604 243.023V255.715H568.437V244.098C568.437 241.989 567.394 240.397 564.95 240.397C562.665 240.397 561.303 242.149 561.303 244.258V255.716H556.017V244.098C556.017 241.989 554.935 240.397 552.53 240.397C550.206 240.397 548.843 242.11 548.843 244.258V255.716H543.516V236.14ZM509.782 256.282C503.779 256.282 499.432 251.863 499.432 245.928C499.432 240.087 503.765 235.564 509.782 235.564C515.827 235.564 520.131 240.129 520.131 245.928C520.131 251.821 515.782 256.282 509.782 256.282ZM509.782 240.355C508.293 240.357 506.865 240.945 505.813 241.99C504.76 243.035 504.169 244.452 504.168 245.929C504.169 247.406 504.76 248.823 505.813 249.868C506.865 250.913 508.293 251.501 509.782 251.503C511.27 251.501 512.697 250.912 513.75 249.867C514.802 248.822 515.393 247.406 515.394 245.929C515.393 244.452 514.802 243.035 513.75 241.99C512.697 240.945 511.27 240.357 509.782 240.355ZM531.512 256.282C525.509 256.282 521.162 251.863 521.162 245.928C521.162 240.087 525.495 235.564 531.512 235.564C537.557 235.564 541.861 240.129 541.861 245.928C541.861 251.821 537.509 256.282 531.512 256.282ZM531.512 240.288C530.005 240.29 528.562 240.885 527.497 241.942C526.433 242.999 525.834 244.432 525.833 245.926C525.834 247.421 526.433 248.853 527.497 249.91C528.562 250.967 530.005 251.562 531.512 251.565C533.018 251.562 534.461 250.967 535.526 249.91C536.59 248.853 537.189 247.421 537.19 245.926C537.189 244.432 536.59 242.999 535.526 241.942C534.461 240.885 533.018 240.29 531.512 240.288Z" fill="#98A6AA"/>
<path fill-rule="evenodd" clip-rule="evenodd" d="M783.923 237.064L779.342 232.449H770.832V226.512H763.631V253.552H770.832V239.702H776.722V253.552H783.923V237.064ZM761.014 232.449H749.887L745.306 237.064V248.935L749.887 253.552H761.014V246.298H752.505V239.702H761.014V232.449ZM742.687 232.449H736.798V226.512H729.597V248.935L734.179 253.552H742.687V246.298H736.798V239.702H742.687V232.449ZM726.979 226.512H719.78V229.811H726.979V226.512ZM726.979 232.449H719.78V253.552H726.979V232.449ZM717.162 232.449H709.962V246.298H707.344V232.449H700.144V246.298H697.527V232.449H690.326V253.552H712.581L717.162 248.935V232.449ZM687.708 232.449H681.818V226.512H674.618V248.935L679.2 253.552H687.708V246.298H681.818V239.702H687.708V232.449ZM786.539 235.745V255.529L776.722 262.125H770.177V258.826L765.595 262.125H759.706V258.826L756.434 262.125H745.961L742.687 258.826L742.032 262.125H732.87L729.124 258.826L728.914 262.125H718.529L718.162 258.826L715.351 262.125H699.489L696.216 260.806V262.125H687.708L677.89 256.188L672 250.255V223.875H684.437L690.326 229.811H717.162V223.875H739.415V229.811H745.306V233.108L748.579 229.811H755.123L761.014 223.875H773.45V229.811H780.65L786.539 235.745Z" fill="#98A6AA"/>
<path d="M284.495 240.954H289.278L282.481 257.317H278.201L271.278 240.954H276.187L280.341 251.903L284.495 240.954ZM290.788 257.197H295.446V240.954H290.788V257.197ZM297.585 251.903H302.243C302.368 252.986 303.124 254.068 305.138 254.068C306.9 254.068 307.781 253.467 307.781 252.625C307.781 249.857 298.341 252.504 298.341 246.007C298.341 243 300.984 240.593 305.138 240.593C310.298 240.593 312.06 243.721 312.186 246.128H307.781C307.655 245.045 306.9 244.203 305.263 244.203C303.753 244.203 302.872 244.925 302.872 245.767C302.872 248.534 312.312 245.767 312.312 252.504C312.312 255.392 309.669 257.678 305.138 257.678C299.725 257.558 297.837 255.031 297.585 251.903ZM314.578 257.197H319.235V240.954H314.578V257.197ZM330.186 253.708C332.577 253.708 334.465 252.023 334.465 249.015C334.465 246.128 332.577 244.323 330.186 244.323C327.794 244.323 325.906 246.007 325.906 249.015C325.906 252.023 327.794 253.708 330.186 253.708ZM321.249 249.015C321.249 244.323 324.773 240.473 330.186 240.473C335.598 240.473 339.123 244.323 339.123 249.015C339.123 253.708 335.598 257.558 330.186 257.558C324.773 257.558 321.249 253.708 321.249 249.015ZM345.542 242.879C346.297 241.435 348.06 240.473 350.577 240.473C354.731 240.473 356.87 243.12 356.87 246.97V257.197H352.213V247.451C352.213 245.526 351.332 244.203 349.318 244.203C347.053 244.203 345.794 245.526 345.794 247.812V257.197H341.137V240.954H345.542V242.879Z" fill="#98A6AA"/>
<path d="M231 267.063H273.922V226.036H231V267.063Z" fill="#98A6AA"/>
<path d="M246.104 238.909C247.489 238.909 248.622 237.947 248.622 236.503C248.622 235.18 247.489 234.097 246.104 234.097C244.72 234.097 243.587 235.059 243.587 236.503C243.587 237.947 244.72 238.909 246.104 238.909ZM240.818 251.663C240.692 252.264 240.566 252.866 240.566 253.467C240.566 255.513 241.699 256.956 244.216 256.956C246.356 256.956 247.993 255.753 249.251 253.828L248.496 256.716H252.65L255.041 247.692C255.671 245.406 256.803 244.203 258.566 244.203C259.95 244.203 260.831 245.045 260.831 246.369C260.831 246.73 260.831 247.211 260.705 247.692L259.447 251.903C259.321 252.505 259.195 253.106 259.195 253.708C259.195 255.633 260.454 257.077 262.971 257.077C265.111 257.077 266.873 255.753 267.88 252.505L266.244 251.903C265.489 254.069 264.733 254.43 264.23 254.43C263.726 254.43 263.349 254.069 263.349 253.347C263.349 252.986 263.475 252.625 263.475 252.264L264.607 248.173C264.859 247.211 264.985 246.369 264.985 245.647C264.985 242.639 263.097 241.075 260.705 241.075C258.566 241.075 256.3 243 255.167 244.925L255.922 241.436H249.629L248.748 244.564H251.643L249.881 251.181C248.496 254.189 245.853 254.309 245.475 254.189C244.972 254.069 244.594 253.828 244.594 253.227C244.594 252.866 244.72 252.264 244.846 251.663L247.615 241.195H240.692L239.811 244.323H242.706L240.818 251.663Z" fill="white"/>
<defs>
<clipPath id="clip0_69_25">
<rect width="157" height="54" fill="white" transform="translate(0 118)"/>
</clipPath>
<clipPath id="clip1_69_25">
<rect width="163" height="54" fill="white" transform="translate(436 118)"/>
</clipPath>
<clipPath id="clip2_69_25">
<rect width="143" height="54" fill="white" transform="translate(667 118)"/>
</clipPath>
</defs>
</svg>
