<svg width="157" height="48" viewBox="0 0 157 48" fill="none" xmlns="http://www.w3.org/2000/svg">
<path d="M23.6315 0.463989C10.6252 0.463989 0.0810547 11.0414 0.0810547 24.0891C0.0810547 37.1374 10.6252 47.714 23.6315 47.714C36.6392 47.714 47.1822 37.1374 47.1822 24.0891C47.1822 11.0423 36.6392 0.465118 23.6312 0.465118L23.6315 0.463989ZM34.4316 34.5382C34.0097 35.2322 33.1042 35.4523 32.4124 35.0263C26.883 31.638 19.9222 30.8707 11.7245 32.7496C10.9346 32.9301 10.1471 32.4336 9.96716 31.6409C9.78633 30.8481 10.2793 30.0582 11.0712 29.8776C20.0422 27.8216 27.7373 28.7068 33.945 32.5126C34.6369 32.9386 34.8562 33.8442 34.4316 34.5382ZM37.3141 28.1054C36.7826 28.972 35.6521 29.2457 34.7887 28.7125C28.4584 24.8091 18.8088 23.6786 11.3212 25.9587C10.3502 26.253 9.32456 25.704 9.02984 24.7315C8.73737 23.7574 9.28491 22.7304 10.2543 22.4342C18.8071 19.8308 29.4399 21.0919 36.7095 25.5734C37.5728 26.1066 37.8456 27.2407 37.3141 28.1056V28.1054ZM37.5616 21.4067C29.9714 16.8841 17.4485 16.4683 10.2017 18.6747C9.038 19.0288 7.80737 18.3697 7.45471 17.2023C7.10206 16.0344 7.75843 14.8007 8.92298 14.4458C17.2418 11.9123 31.0709 12.4018 39.8097 17.6061C40.8586 18.2293 41.2017 19.5854 40.5802 20.634C39.9615 21.6841 38.606 22.0302 37.5627 21.4067H37.5616ZM64.154 22.2734C60.0875 21.3007 59.3648 20.6179 59.3648 19.1834C59.3648 17.8281 60.6359 16.916 62.5285 16.916C64.3621 16.916 66.1788 17.6086 68.0855 19.0344C68.1417 19.0776 68.2148 19.0948 68.2851 19.0835C68.3583 19.0728 68.4201 19.0336 68.4623 18.9746L70.4477 16.167C70.5293 16.0513 70.5068 15.8919 70.3971 15.8036C68.1277 13.9775 65.5742 13.0896 62.5876 13.0896C58.1977 13.0896 55.1295 15.7328 55.1295 19.5146C55.1295 23.57 57.7759 25.006 62.3485 26.1145C66.2378 27.0136 66.8959 27.7668 66.8959 29.1131C66.8959 30.6055 65.5685 31.5337 63.4312 31.5337C61.0577 31.5337 59.1201 30.7296 56.9547 28.8507C56.9013 28.8028 56.8281 28.783 56.7606 28.7858C56.6875 28.7915 56.6228 28.8253 56.5778 28.8789L54.3506 31.5365C54.2578 31.6493 54.269 31.813 54.3759 31.9089C56.8956 34.1658 59.9947 35.3564 63.3412 35.3564C68.0714 35.3564 71.1283 32.7637 71.1283 28.7492C71.1367 25.3618 69.1147 23.4857 64.1624 22.2771L64.154 22.2734ZM81.8316 18.2504C79.7815 18.2504 78.0998 19.0607 76.7106 20.7209V18.8522C76.7106 18.7046 76.5925 18.5844 76.4462 18.5844H72.8044C72.6582 18.5844 72.54 18.7046 72.54 18.8522V39.6164C72.54 39.7631 72.6582 39.8844 72.8044 39.8844H76.4462C76.5925 39.8844 76.7106 39.7631 76.7106 39.6164V33.0627C78.0998 34.6229 79.7815 35.3874 81.8316 35.3874C85.6422 35.3874 89.5006 32.4449 89.5006 26.8197C89.5062 21.1935 85.6478 18.2501 81.8345 18.2501L81.8316 18.2504ZM85.2654 26.8197C85.2654 29.683 83.5077 31.6832 80.988 31.6832C78.4992 31.6832 76.6206 29.5927 76.6206 26.8197C76.6206 24.0465 78.4992 21.9566 80.988 21.9566C83.4656 21.9563 85.2654 24.0011 85.2654 26.8195V26.8197ZM99.3856 18.2504C94.4782 18.2504 90.6339 22.041 90.6339 26.881C90.6339 31.6691 94.4529 35.4184 99.3265 35.4184C104.251 35.4184 108.106 31.6409 108.106 26.8197C108.106 22.015 104.276 18.251 99.3856 18.251V18.2504ZM99.3856 31.7114C96.7758 31.7114 94.8073 29.6068 94.8073 26.8183C94.8073 24.0172 96.7083 21.9845 99.3265 21.9845C101.953 21.9845 103.933 24.0883 103.933 26.8796C103.933 29.6801 102.021 31.7114 99.3856 31.7114ZM118.585 18.5844H114.577V14.4751C114.577 14.3278 114.459 14.2077 114.313 14.2077H110.671C110.525 14.2077 110.404 14.3278 110.404 14.4751V18.5844H108.655C108.508 18.5844 108.39 18.7046 108.39 18.8522V21.9913C108.39 22.1386 108.508 22.259 108.655 22.259H110.404V30.3826C110.404 33.6637 112.032 35.3282 115.247 35.3282C116.551 35.3282 117.634 35.0573 118.655 34.4762C118.739 34.431 118.79 34.3407 118.79 34.2448V31.2544C118.79 31.1641 118.742 31.0766 118.663 31.0287C118.585 30.9779 118.486 30.9751 118.405 31.0174C117.704 31.37 117.027 31.5337 116.267 31.5337C115.1 31.5337 114.577 31.0005 114.577 29.8099V22.2604H118.585C118.731 22.2604 118.849 22.1403 118.849 21.9927V18.8539C118.855 18.7063 118.736 18.5861 118.587 18.5861L118.585 18.5844ZM132.545 18.6005V18.0958C132.545 16.611 133.113 15.9489 134.384 15.9489C135.143 15.9489 135.753 16.1001 136.437 16.3286C136.521 16.3551 136.608 16.3419 136.676 16.2914C136.746 16.2409 136.785 16.1599 136.785 16.0742V12.9962C136.785 12.8786 136.712 12.7745 136.597 12.7398C135.877 12.5245 134.955 12.3036 133.571 12.3036C130.21 12.3036 128.43 14.2034 128.43 17.7956V18.5686H126.681C126.535 18.5686 126.414 18.6888 126.414 18.8361V21.9913C126.414 22.1386 126.535 22.259 126.681 22.259H128.43V34.7865C128.43 34.936 128.551 35.0545 128.697 35.0545H132.336C132.485 35.0545 132.604 34.936 132.604 34.7865V22.2599H136.004L141.212 34.7865C140.621 36.1012 140.039 36.3635 139.246 36.3635C138.605 36.3635 137.927 36.1717 137.238 35.7908C137.173 35.757 137.095 35.7513 137.027 35.7711C136.957 35.7965 136.898 35.8472 136.87 35.915L135.635 38.6318C135.576 38.7615 135.627 38.9111 135.75 38.9788C137.038 39.6784 138.2 39.9775 139.637 39.9775C142.325 39.9775 143.813 38.7192 145.121 35.3394L151.437 18.9661C151.471 18.8838 151.46 18.7907 151.409 18.7176C151.361 18.6451 151.28 18.6014 151.192 18.6014H147.402C147.286 18.6014 147.185 18.6739 147.148 18.7808L143.265 29.9058L139.013 18.7735C138.973 18.6699 138.875 18.6014 138.765 18.6014H132.545V18.6005ZM124.451 18.5844H120.809C120.663 18.5844 120.542 18.7046 120.542 18.8522V34.7865C120.542 34.936 120.663 35.0545 120.809 35.0545H124.451C124.597 35.0545 124.718 34.936 124.718 34.7865V18.8533C124.718 18.7057 124.6 18.5856 124.451 18.5856V18.5844ZM122.651 11.3286C121.208 11.3286 120.039 12.5 120.039 13.947C120.039 15.3948 121.208 16.5676 122.651 16.5676C124.094 16.5676 125.261 15.3948 125.261 13.947C125.261 12.5003 124.091 11.3286 122.651 11.3286ZM154.547 23.708C153.108 23.708 151.985 22.5471 151.985 21.1373C151.985 19.7276 153.122 18.5534 154.561 18.5534C156.001 18.5534 157.123 19.714 157.123 21.1227C157.123 22.5324 155.987 23.708 154.547 23.708ZM154.561 18.809C153.248 18.809 152.255 19.8557 152.255 21.1373C152.255 22.4184 153.243 23.451 154.547 23.451C155.861 23.451 156.853 22.4052 156.853 21.1227C156.853 19.8416 155.866 18.809 154.561 18.809ZM155.13 21.387L155.855 22.4049H155.242L154.59 21.4711H154.03V22.4049H153.518V19.7067H154.716C155.343 19.7067 155.754 20.0275 155.754 20.5674C155.757 21.0098 155.501 21.2801 155.132 21.387H155.13ZM154.696 20.1697H154.03V21.0231H154.696C155.028 21.0231 155.228 20.8597 155.228 20.5959C155.228 20.3183 155.028 20.1697 154.696 20.1697Z" fill="#98A6AA"/>
</svg>
